<svg width="1051" height="2151" viewBox="0 0 1051 2151" fill="none" xmlns="http://www.w3.org/2000/svg">
<g filter="url(#filter0_d_483_98)">
<path d="M35 35V375.967C35 409.923 48.4892 442.489 72.5 466.5V466.5C96.5108 490.511 129.077 504 163.033 504H847.85C892.446 504 935.216 521.716 966.75 553.25V553.25C998.284 584.784 1016 627.554 1016 672.15V707.85C1016 752.446 998.284 795.216 966.75 826.75V826.75C935.216 858.284 892.446 876 847.85 876H163.033C129.077 876 96.5108 889.489 72.5 913.5V913.5C48.4892 937.511 35 970.077 35 1004.03V1120.47C35 1154.42 48.4892 1186.99 72.5 1211V1211C96.5108 1235.01 129.077 1248.5 163.033 1248.5H847.85C892.446 1248.5 935.216 1266.22 966.75 1297.75V1297.75C998.284 1329.28 1016 1372.05 1016 1416.65V1451.85C1016 1496.45 998.284 1539.22 966.75 1570.75V1570.75C935.216 1602.28 892.446 1620 847.85 1620H678.24C643.831 1620 610.831 1633.67 586.5 1658V1658C562.169 1682.33 548.5 1715.33 548.5 1749.74V2108.5" stroke="url(#paint0_linear_483_98)" stroke-width="70" stroke-linecap="round"/>
</g>
<path d="M35 54V375.967C35 409.923 48.4892 442.489 72.5 466.5V466.5C96.5108 490.511 129.077 504 163.033 504H847.85C892.446 504 935.216 521.716 966.75 553.25V553.25C998.284 584.784 1016 627.554 1016 672.15V707.85C1016 752.446 998.284 795.216 966.75 826.75V826.75C935.216 858.284 892.446 876 847.85 876H163.033C129.077 876 96.5108 889.489 72.5 913.5V913.5C48.4892 937.511 35 970.077 35 1004.03V1120.47C35 1154.42 48.4892 1186.99 72.5 1211V1211C96.5108 1235.01 129.077 1248.5 163.033 1248.5H847.85C892.446 1248.5 935.216 1266.22 966.75 1297.75V1297.75C998.284 1329.28 1016 1372.05 1016 1416.65V1451.85C1016 1496.45 998.284 1539.22 966.75 1570.75V1570.75C935.216 1602.28 892.446 1620 847.85 1620H678.24C643.831 1620 610.831 1633.67 586.5 1658V1658C562.169 1682.33 548.5 1715.33 548.5 1749.74V2103" stroke="#EBEBEB" stroke-width="9" stroke-dasharray="20 20"/>
<defs>
<filter id="filter0_d_483_98" x="0" y="0" width="1051" height="2150.5" filterUnits="userSpaceOnUse" color-interpolation-filters="sRGB">
<feFlood flood-opacity="0" result="BackgroundImageFix"/>
<feColorMatrix in="SourceAlpha" type="matrix" values="0 0 0 0 0 0 0 0 0 0 0 0 0 0 0 0 0 0 127 0" result="hardAlpha"/>
<feOffset dy="7"/>
<feComposite in2="hardAlpha" operator="out"/>
<feColorMatrix type="matrix" values="0 0 0 0 0 0 0 0 0 0 0 0 0 0 0 0 0 0 0.25 0"/>
<feBlend mode="normal" in2="BackgroundImageFix" result="effect1_dropShadow_483_98"/>
<feBlend mode="normal" in="SourceGraphic" in2="effect1_dropShadow_483_98" result="shape"/>
</filter>
<linearGradient id="paint0_linear_483_98" x1="525.5" y1="35" x2="525.5" y2="2108.5" gradientUnits="userSpaceOnUse">
<stop offset="0.183365" stop-color="#959599"/>
<stop offset="0.740652" stop-color="#CFCFCF"/>
</linearGradient>
</defs>
</svg>